<?xml version="1.0" standalone="no"?>
<!DOCTYPE svg PUBLIC "-//W3C//DTD SVG 20010904//EN"
 "http://www.w3.org/TR/2001/REC-SVG-20010904/DTD/svg10.dtd">
<svg version="1.0" xmlns="http://www.w3.org/2000/svg"
 width="512.000000pt" height="512.000000pt" viewBox="0 0 512.000000 512.000000"
 preserveAspectRatio="xMidYMid meet">

<g transform="translate(0.000000,512.000000) scale(0.100000,-0.100000)"
fill="#000000" stroke="none">
<path d="M320 3775 l0 -1025 1025 0 1025 0 0 1025 0 1025 -1025 0 -1025 0 0
-1025z m795 495 l230 -230 232 232 232 232 133 -129 c73 -71 134 -131 136
-135 1 -3 -104 -109 -234 -235 l-236 -228 236 -236 236 -236 -132 -133 -133
-132 -232 232 -233 233 -234 -234 -233 -233 -129 132 c-71 72 -130 135 -132
138 -1 4 101 111 228 237 l230 230 -232 232 -233 233 130 130 c71 71 132 130
135 130 3 0 109 -104 235 -230z"/>
<path d="M2750 3775 l0 -1025 1025 0 1025 0 0 1025 0 1025 -1025 0 -1025 0 0
-1025z"/>
<path d="M320 1345 l0 -1025 1025 0 1025 0 0 1025 0 1025 -1025 0 -1025 0 0
-1025z"/>
<path d="M2750 1345 l0 -1025 1025 0 1025 0 0 1025 0 1025 -1025 0 -1025 0 0
-1025z m1215 820 c325 -83 565 -333 630 -654 27 -131 17 -298 -24 -421 -44
-131 -110 -238 -206 -335 -97 -96 -204 -162 -335 -206 -123 -41 -290 -51 -421
-24 -529 107 -823 677 -601 1167 110 242 348 432 597 477 33 6 71 13 85 15 46
8 214 -4 275 -19z"/>
<path d="M3635 1793 c-111 -40 -186 -96 -244 -184 -182 -272 -44 -631 274
-714 285 -74 574 153 575 450 0 181 -99 339 -265 421 -71 35 -83 38 -183 41
-84 3 -118 0 -157 -14z"/>
</g>
</svg>
